<svg width="608" height="552" viewBox="0 0 608 552" fill="none" xmlns="http://www.w3.org/2000/svg">
<rect width="608" height="552" rx="8" fill="#F8F9F9"/>
<g clip-path="url(#clip0_765_16922)">
<path d="M443.088 390.579C443.926 390.579 444.554 391.207 444.554 392.045C444.554 392.883 443.926 393.512 443.088 393.512C442.25 393.512 441.621 392.883 441.621 392.045C441.621 391.312 442.302 390.631 443.088 390.579Z" fill="black"/>
<path d="M443.088 390.579C443.926 390.579 444.554 391.207 444.554 392.045C444.554 392.883 443.926 393.512 443.088 393.512C442.25 393.512 441.621 392.883 441.621 392.045C441.621 391.312 442.302 390.631 443.088 390.579Z" fill="black" fill-opacity="0.2"/>
<path d="M443.089 367.846C443.927 367.846 444.555 368.475 444.555 369.313C444.555 370.151 443.927 370.779 443.089 370.779C442.251 370.779 441.622 370.151 441.622 369.313C441.622 368.475 442.251 367.846 443.089 367.846Z" fill="black"/>
<path d="M443.089 367.846C443.927 367.846 444.555 368.475 444.555 369.313C444.555 370.151 443.927 370.779 443.089 370.779C442.251 370.779 441.622 370.151 441.622 369.313C441.622 368.475 442.251 367.846 443.089 367.846Z" fill="black" fill-opacity="0.2"/>
<path d="M443.088 345.114C443.926 345.114 444.554 345.742 444.554 346.58C444.554 347.419 443.926 348.047 443.088 348.047C442.25 348.047 441.621 347.419 441.621 346.58C441.621 345.742 442.302 345.062 443.088 345.114Z" fill="black"/>
<path d="M443.088 345.114C443.926 345.114 444.554 345.742 444.554 346.58C444.554 347.419 443.926 348.047 443.088 348.047C442.25 348.047 441.621 347.419 441.621 346.58C441.621 345.742 442.302 345.062 443.088 345.114Z" fill="black" fill-opacity="0.2"/>
<path d="M442.041 324.791C442.62 325.37 443.558 325.37 444.136 324.791C444.715 324.213 444.715 323.275 444.136 322.696C443.558 322.117 442.62 322.118 442.041 322.696C441.463 323.275 441.463 324.213 442.041 324.791Z" fill="black"/>
<path d="M442.041 324.791C442.62 325.37 443.558 325.37 444.136 324.791C444.715 324.213 444.715 323.275 444.136 322.696C443.558 322.117 442.62 322.118 442.041 322.696C441.463 323.275 441.463 324.213 442.041 324.791Z" fill="black" fill-opacity="0.2"/>
<path d="M443.088 299.546C443.926 299.546 444.554 300.174 444.554 301.012C444.554 301.85 443.926 302.479 443.088 302.479C442.25 302.479 441.621 301.85 441.621 301.012C441.621 300.174 442.302 299.493 443.088 299.546Z" fill="black"/>
<path d="M443.088 299.546C443.926 299.546 444.554 300.174 444.554 301.012C444.554 301.85 443.926 302.479 443.088 302.479C442.25 302.479 441.621 301.85 441.621 301.012C441.621 300.174 442.302 299.493 443.088 299.546Z" fill="black" fill-opacity="0.2"/>
<path d="M463.464 390.63C464.302 390.63 464.93 391.259 464.93 392.097C464.93 392.935 464.302 393.564 463.464 393.564C462.626 393.564 461.997 392.935 461.997 392.097C461.997 391.259 462.626 390.63 463.464 390.63Z" fill="black"/>
<path d="M463.464 390.63C464.302 390.63 464.93 391.259 464.93 392.097C464.93 392.935 464.302 393.564 463.464 393.564C462.626 393.564 461.997 392.935 461.997 392.097C461.997 391.259 462.626 390.63 463.464 390.63Z" fill="black" fill-opacity="0.2"/>
<path d="M463.412 367.847C464.25 367.847 464.878 368.476 464.878 369.314C464.878 370.152 464.25 370.78 463.412 370.78C462.574 370.78 461.945 370.152 461.945 369.314C461.998 368.528 462.679 367.847 463.412 367.847Z" fill="black"/>
<path d="M463.412 367.847C464.25 367.847 464.878 368.476 464.878 369.314C464.878 370.152 464.25 370.78 463.412 370.78C462.574 370.78 461.945 370.152 461.945 369.314C461.998 368.528 462.679 367.847 463.412 367.847Z" fill="black" fill-opacity="0.2"/>
<path d="M463.464 345.062C464.302 345.062 464.93 345.691 464.93 346.529C464.93 347.367 464.302 347.995 463.464 347.995C462.626 347.995 461.997 347.367 461.997 346.529C461.997 345.691 462.626 345.062 463.464 345.062Z" fill="black"/>
<path d="M463.464 345.062C464.302 345.062 464.93 345.691 464.93 346.529C464.93 347.367 464.302 347.995 463.464 347.995C462.626 347.995 461.997 347.367 461.997 346.529C461.997 345.691 462.626 345.062 463.464 345.062Z" fill="black" fill-opacity="0.2"/>
<path d="M462.364 324.792C462.942 325.371 463.88 325.371 464.459 324.792C465.037 324.213 465.037 323.276 464.459 322.697C463.88 322.118 462.942 322.118 462.364 322.697C461.785 323.276 461.785 324.214 462.364 324.792Z" fill="black"/>
<path d="M462.364 324.792C462.942 325.371 463.88 325.371 464.459 324.792C465.037 324.213 465.037 323.276 464.459 322.697C463.88 322.118 462.942 322.118 462.364 322.697C461.785 323.276 461.785 324.214 462.364 324.792Z" fill="black" fill-opacity="0.2"/>
<path d="M462.416 302.007C462.995 302.586 463.933 302.586 464.511 302.007C465.09 301.428 465.09 300.49 464.511 299.912C463.933 299.333 462.995 299.333 462.416 299.912C461.838 300.49 461.838 301.428 462.416 302.007Z" fill="black"/>
<path d="M462.416 302.007C462.995 302.586 463.933 302.586 464.511 302.007C465.09 301.428 465.09 300.49 464.511 299.912C463.933 299.333 462.995 299.333 462.416 299.912C461.838 300.49 461.838 301.428 462.416 302.007Z" fill="black" fill-opacity="0.2"/>
<path d="M482.739 393.145C483.317 393.723 484.255 393.723 484.834 393.145C485.412 392.566 485.412 391.628 484.834 391.05C484.255 390.471 483.317 390.471 482.739 391.05C482.16 391.628 482.16 392.566 482.739 393.145Z" fill="black"/>
<path d="M482.739 393.145C483.317 393.723 484.255 393.723 484.834 393.145C485.412 392.566 485.412 391.628 484.834 391.05C484.255 390.471 483.317 390.471 482.739 391.05C482.16 391.628 482.16 392.566 482.739 393.145Z" fill="black" fill-opacity="0.2"/>
<path d="M482.739 370.308C483.317 370.887 484.255 370.887 484.834 370.308C485.412 369.729 485.412 368.791 484.834 368.213C484.255 367.634 483.317 367.634 482.739 368.213C482.16 368.791 482.16 369.729 482.739 370.308Z" fill="black"/>
<path d="M482.739 370.308C483.317 370.887 484.255 370.887 484.834 370.308C485.412 369.729 485.412 368.791 484.834 368.213C484.255 367.634 483.317 367.634 482.739 368.213C482.16 368.791 482.16 369.729 482.739 370.308Z" fill="black" fill-opacity="0.2"/>
<path d="M483.786 345.062C484.624 345.062 485.253 345.691 485.253 346.529C485.253 347.367 484.624 347.995 483.786 347.995C482.948 347.995 482.32 347.367 482.32 346.529C482.32 345.691 482.948 345.062 483.786 345.062Z" fill="black"/>
<path d="M483.786 345.062C484.624 345.062 485.253 345.691 485.253 346.529C485.253 347.367 484.624 347.995 483.786 347.995C482.948 347.995 482.32 347.367 482.32 346.529C482.32 345.691 482.948 345.062 483.786 345.062Z" fill="black" fill-opacity="0.2"/>
<path d="M483.786 322.33C484.624 322.33 485.253 322.958 485.253 323.796C485.253 324.634 484.624 325.263 483.786 325.263C482.948 325.263 482.32 324.634 482.32 323.796C482.32 322.958 483 322.277 483.786 322.33Z" fill="black"/>
<path d="M483.786 322.33C484.624 322.33 485.253 322.958 485.253 323.796C485.253 324.634 484.624 325.263 483.786 325.263C482.948 325.263 482.32 324.634 482.32 323.796C482.32 322.958 483 322.277 483.786 322.33Z" fill="black" fill-opacity="0.2"/>
<path d="M483.786 299.493C484.624 299.493 485.253 300.121 485.253 300.959C485.253 301.797 484.624 302.426 483.786 302.426C482.948 302.426 482.319 301.797 482.319 300.959C482.372 300.173 483 299.545 483.786 299.493Z" fill="black"/>
<path d="M483.786 299.493C484.624 299.493 485.253 300.121 485.253 300.959C485.253 301.797 484.624 302.426 483.786 302.426C482.948 302.426 482.319 301.797 482.319 300.959C482.372 300.173 483 299.545 483.786 299.493Z" fill="black" fill-opacity="0.2"/>
<path d="M504.108 390.63C504.946 390.63 505.575 391.259 505.575 392.097C505.575 392.935 504.946 393.563 504.108 393.563C503.27 393.563 502.642 392.935 502.642 392.097C502.694 391.311 503.375 390.63 504.108 390.63Z" fill="black"/>
<path d="M504.108 390.63C504.946 390.63 505.575 391.259 505.575 392.097C505.575 392.935 504.946 393.563 504.108 393.563C503.27 393.563 502.642 392.935 502.642 392.097C502.694 391.311 503.375 390.63 504.108 390.63Z" fill="black" fill-opacity="0.2"/>
<path d="M504.161 367.846C504.999 367.846 505.628 368.475 505.628 369.313C505.628 370.151 504.999 370.779 504.161 370.779C503.323 370.779 502.695 370.151 502.695 369.313C502.695 368.475 503.323 367.846 504.161 367.846Z" fill="black"/>
<path d="M504.161 367.846C504.999 367.846 505.628 368.475 505.628 369.313C505.628 370.151 504.999 370.779 504.161 370.779C503.323 370.779 502.695 370.151 502.695 369.313C502.695 368.475 503.323 367.846 504.161 367.846Z" fill="black" fill-opacity="0.2"/>
<path d="M504.108 345.061C504.946 345.061 505.575 345.689 505.575 346.528C505.575 347.366 504.946 347.994 504.108 347.994C503.27 347.994 502.642 347.366 502.642 346.528C502.694 345.742 503.375 345.061 504.108 345.061Z" fill="black"/>
<path d="M504.108 345.061C504.946 345.061 505.575 345.689 505.575 346.528C505.575 347.366 504.946 347.994 504.108 347.994C503.27 347.994 502.642 347.366 502.642 346.528C502.694 345.742 503.375 345.061 504.108 345.061Z" fill="black" fill-opacity="0.2"/>
<path d="M503.114 324.791C503.692 325.37 504.63 325.37 505.209 324.791C505.787 324.213 505.787 323.275 505.209 322.696C504.63 322.117 503.692 322.117 503.114 322.696C502.535 323.275 502.535 324.213 503.114 324.791Z" fill="black"/>
<path d="M503.114 324.791C503.692 325.37 504.63 325.37 505.209 324.791C505.787 324.213 505.787 323.275 505.209 322.696C504.63 322.117 503.692 322.117 503.114 322.696C502.535 323.275 502.535 324.213 503.114 324.791Z" fill="black" fill-opacity="0.2"/>
<path d="M504.161 299.545C504.999 299.545 505.628 300.173 505.628 301.011C505.628 301.849 504.999 302.478 504.161 302.478C503.323 302.478 502.695 301.849 502.695 301.011C502.695 300.173 503.323 299.545 504.161 299.545Z" fill="black"/>
<path d="M504.161 299.545C504.999 299.545 505.628 300.173 505.628 301.011C505.628 301.849 504.999 302.478 504.161 302.478C503.323 302.478 502.695 301.849 502.695 301.011C502.695 300.173 503.323 299.545 504.161 299.545Z" fill="black" fill-opacity="0.2"/>
<path d="M524.484 390.579C525.322 390.579 525.951 391.207 525.951 392.045C525.951 392.883 525.322 393.512 524.484 393.512C523.646 393.512 523.018 392.883 523.018 392.045C523.07 391.259 523.698 390.631 524.484 390.579Z" fill="black"/>
<path d="M524.484 390.579C525.322 390.579 525.951 391.207 525.951 392.045C525.951 392.883 525.322 393.512 524.484 393.512C523.646 393.512 523.018 392.883 523.018 392.045C523.07 391.259 523.698 390.631 524.484 390.579Z" fill="black" fill-opacity="0.2"/>
<path d="M524.484 367.846C525.322 367.846 525.951 368.475 525.951 369.313C525.951 370.151 525.322 370.779 524.484 370.779C523.646 370.779 523.018 370.151 523.018 369.313C523.018 368.475 523.646 367.846 524.484 367.846Z" fill="black"/>
<path d="M524.484 367.846C525.322 367.846 525.951 368.475 525.951 369.313C525.951 370.151 525.322 370.779 524.484 370.779C523.646 370.779 523.018 370.151 523.018 369.313C523.018 368.475 523.646 367.846 524.484 367.846Z" fill="black" fill-opacity="0.2"/>
<path d="M524.484 345.114C525.322 345.114 525.951 345.742 525.951 346.58C525.951 347.419 525.322 348.047 524.484 348.047C523.646 348.047 523.018 347.419 523.018 346.58C523.018 345.742 523.699 345.062 524.484 345.114Z" fill="black"/>
<path d="M524.484 345.114C525.322 345.114 525.951 345.742 525.951 346.58C525.951 347.419 525.322 348.047 524.484 348.047C523.646 348.047 523.018 347.419 523.018 346.58C523.018 345.742 523.699 345.062 524.484 345.114Z" fill="black" fill-opacity="0.2"/>
<path d="M523.437 324.792C524.015 325.371 524.953 325.37 525.532 324.792C526.11 324.213 526.111 323.276 525.532 322.697C524.953 322.119 524.015 322.118 523.437 322.697C522.858 323.276 522.858 324.214 523.437 324.792Z" fill="black"/>
<path d="M523.437 324.792C524.015 325.371 524.953 325.37 525.532 324.792C526.11 324.213 526.111 323.276 525.532 322.697C524.953 322.119 524.015 322.118 523.437 322.697C522.858 323.276 522.858 324.214 523.437 324.792Z" fill="black" fill-opacity="0.2"/>
<path d="M523.437 302.06C524.015 302.638 524.953 302.638 525.532 302.06C526.111 301.481 526.111 300.543 525.532 299.965C524.953 299.386 524.015 299.386 523.437 299.965C522.858 300.543 522.858 301.481 523.437 302.06Z" fill="black"/>
<path d="M523.437 302.06C524.015 302.638 524.953 302.638 525.532 302.06C526.111 301.481 526.111 300.543 525.532 299.965C524.953 299.386 524.015 299.386 523.437 299.965C522.858 300.543 522.858 301.481 523.437 302.06Z" fill="black" fill-opacity="0.2"/>
<path d="M543.812 393.145C544.39 393.723 545.328 393.723 545.907 393.145C546.486 392.566 546.485 391.628 545.907 391.05C545.328 390.471 544.39 390.471 543.812 391.05C543.233 391.628 543.233 392.566 543.812 393.145Z" fill="black"/>
<path d="M543.812 393.145C544.39 393.723 545.328 393.723 545.907 393.145C546.486 392.566 546.485 391.628 545.907 391.05C545.328 390.471 544.39 390.471 543.812 391.05C543.233 391.628 543.233 392.566 543.812 393.145Z" fill="black" fill-opacity="0.2"/>
<path d="M543.759 370.36C544.337 370.939 545.276 370.939 545.854 370.36C546.433 369.782 546.432 368.844 545.854 368.265C545.275 367.687 544.338 367.687 543.759 368.265C543.181 368.844 543.18 369.782 543.759 370.36Z" fill="black"/>
<path d="M543.759 370.36C544.337 370.939 545.276 370.939 545.854 370.36C546.433 369.782 546.432 368.844 545.854 368.265C545.275 367.687 544.338 367.687 543.759 368.265C543.181 368.844 543.18 369.782 543.759 370.36Z" fill="black" fill-opacity="0.2"/>
<path d="M544.859 345.062C545.697 345.062 546.326 345.691 546.326 346.529C546.326 347.367 545.697 347.995 544.859 347.995C544.021 347.995 543.393 347.367 543.393 346.529C543.393 345.691 544.021 345.062 544.859 345.062Z" fill="black"/>
<path d="M544.859 345.062C545.697 345.062 546.326 345.691 546.326 346.529C546.326 347.367 545.697 347.995 544.859 347.995C544.021 347.995 543.393 347.367 543.393 346.529C543.393 345.691 544.021 345.062 544.859 345.062Z" fill="black" fill-opacity="0.2"/>
<path d="M544.859 322.329C545.697 322.329 546.326 322.957 546.326 323.795C546.326 324.633 545.697 325.262 544.859 325.262C544.021 325.262 543.393 324.633 543.393 323.795C543.393 322.957 544.074 322.276 544.859 322.329Z" fill="black"/>
<path d="M544.859 322.329C545.697 322.329 546.326 322.957 546.326 323.795C546.326 324.633 545.697 325.262 544.859 325.262C544.021 325.262 543.393 324.633 543.393 323.795C543.393 322.957 544.074 322.276 544.859 322.329Z" fill="black" fill-opacity="0.2"/>
<path d="M544.859 299.493C545.697 299.493 546.326 300.121 546.326 300.96C546.326 301.798 545.698 302.426 544.86 302.426C544.021 302.426 543.393 301.797 543.393 300.959C543.34 300.174 544.021 299.493 544.859 299.493Z" fill="black"/>
<path d="M544.859 299.493C545.697 299.493 546.326 300.121 546.326 300.96C546.326 301.798 545.698 302.426 544.86 302.426C544.021 302.426 543.393 301.797 543.393 300.959C543.34 300.174 544.021 299.493 544.859 299.493Z" fill="black" fill-opacity="0.2"/>
</g>
<g clip-path="url(#clip1_765_16922)">
<path d="M59.0828 243.574C59.9208 243.574 60.5494 244.202 60.5494 245.04C60.5494 245.878 59.9208 246.507 59.0828 246.507C58.2447 246.507 57.6162 245.878 57.6162 245.04C57.6162 244.307 58.2971 243.626 59.0828 243.574Z" fill="black"/>
<path d="M59.0828 243.574C59.9208 243.574 60.5494 244.202 60.5494 245.04C60.5494 245.878 59.9208 246.507 59.0828 246.507C58.2447 246.507 57.6162 245.878 57.6162 245.04C57.6162 244.307 58.2971 243.626 59.0828 243.574Z" fill="black" fill-opacity="0.2"/>
<path d="M59.084 220.841C59.922 220.841 60.5506 221.47 60.5506 222.308C60.5506 223.146 59.922 223.775 59.084 223.775C58.2459 223.775 57.6174 223.146 57.6174 222.308C57.6174 221.47 58.2459 220.841 59.084 220.841Z" fill="black"/>
<path d="M59.084 220.841C59.922 220.841 60.5506 221.47 60.5506 222.308C60.5506 223.146 59.922 223.775 59.084 223.775C58.2459 223.775 57.6174 223.146 57.6174 222.308C57.6174 221.47 58.2459 220.841 59.084 220.841Z" fill="black" fill-opacity="0.2"/>
<path d="M59.083 198.109C59.9211 198.109 60.5496 198.738 60.5496 199.576C60.5496 200.414 59.9211 201.042 59.083 201.042C58.245 201.042 57.6164 200.414 57.6164 199.576C57.6164 198.738 58.2973 198.057 59.083 198.109Z" fill="black"/>
<path d="M59.083 198.109C59.9211 198.109 60.5496 198.738 60.5496 199.576C60.5496 200.414 59.9211 201.042 59.083 201.042C58.245 201.042 57.6164 200.414 57.6164 199.576C57.6164 198.738 58.2973 198.057 59.083 198.109Z" fill="black" fill-opacity="0.2"/>
<path d="M58.0364 177.786C58.615 178.365 59.5528 178.365 60.1315 177.786C60.7098 177.208 60.7101 176.27 60.1315 175.691C59.553 175.113 58.6147 175.113 58.0364 175.691C57.4576 176.27 57.4578 177.208 58.0364 177.786Z" fill="black"/>
<path d="M58.0364 177.786C58.615 178.365 59.5528 178.365 60.1315 177.786C60.7098 177.208 60.7101 176.27 60.1315 175.691C59.553 175.113 58.6147 175.113 58.0364 175.691C57.4576 176.27 57.4578 177.208 58.0364 177.786Z" fill="black" fill-opacity="0.2"/>
<path d="M59.083 152.541C59.9211 152.541 60.5496 153.169 60.5496 154.007C60.5496 154.845 59.9211 155.474 59.0831 155.474C58.2451 155.474 57.6165 154.845 57.6165 154.007C57.6164 153.169 58.2973 152.488 59.083 152.541Z" fill="black"/>
<path d="M59.083 152.541C59.9211 152.541 60.5496 153.169 60.5496 154.007C60.5496 154.845 59.9211 155.474 59.0831 155.474C58.2451 155.474 57.6165 154.845 57.6165 154.007C57.6164 153.169 58.2973 152.488 59.083 152.541Z" fill="black" fill-opacity="0.2"/>
<path d="M79.459 243.626C80.297 243.626 80.9256 244.254 80.9256 245.092C80.9256 245.93 80.297 246.559 79.459 246.559C78.6209 246.559 77.9924 245.93 77.9924 245.092C77.9924 244.254 78.6209 243.626 79.459 243.626Z" fill="black"/>
<path d="M79.459 243.626C80.297 243.626 80.9256 244.254 80.9256 245.092C80.9256 245.93 80.297 246.559 79.459 246.559C78.6209 246.559 77.9924 245.93 77.9924 245.092C77.9924 244.254 78.6209 243.626 79.459 243.626Z" fill="black" fill-opacity="0.2"/>
<path d="M79.407 220.842C80.2451 220.842 80.8736 221.471 80.8736 222.309C80.8736 223.147 80.2451 223.775 79.407 223.775C78.569 223.775 77.9404 223.147 77.9404 222.309C77.9928 221.523 78.6737 220.842 79.407 220.842Z" fill="black"/>
<path d="M79.407 220.842C80.2451 220.842 80.8736 221.471 80.8736 222.309C80.8736 223.147 80.2451 223.775 79.407 223.775C78.569 223.775 77.9404 223.147 77.9404 222.309C77.9928 221.523 78.6737 220.842 79.407 220.842Z" fill="black" fill-opacity="0.2"/>
<path d="M79.459 198.057C80.297 198.057 80.9256 198.686 80.9256 199.524C80.9256 200.362 80.297 200.99 79.459 200.99C78.6209 200.99 77.9924 200.362 77.9924 199.524C77.9924 198.686 78.6209 198.057 79.459 198.057Z" fill="black"/>
<path d="M79.459 198.057C80.297 198.057 80.9256 198.686 80.9256 199.524C80.9256 200.362 80.297 200.99 79.459 200.99C78.6209 200.99 77.9924 200.362 77.9924 199.524C77.9924 198.686 78.6209 198.057 79.459 198.057Z" fill="black" fill-opacity="0.2"/>
<path d="M78.3587 177.787C78.9373 178.366 79.875 178.366 80.4538 177.787C81.0326 177.208 81.0324 176.271 80.4538 175.692C79.8752 175.114 78.9375 175.113 78.3587 175.692C77.7799 176.271 77.7801 177.209 78.3587 177.787Z" fill="black"/>
<path d="M78.3587 177.787C78.9373 178.366 79.875 178.366 80.4538 177.787C81.0326 177.208 81.0324 176.271 80.4538 175.692C79.8752 175.114 78.9375 175.113 78.3587 175.692C77.7799 176.271 77.7801 177.209 78.3587 177.787Z" fill="black" fill-opacity="0.2"/>
<path d="M78.4114 155.002C78.99 155.581 79.928 155.581 80.5065 155.002C81.0851 154.424 81.0851 153.486 80.5065 152.907C79.928 152.328 78.99 152.328 78.4114 152.907C77.8328 153.486 77.8328 154.424 78.4114 155.002Z" fill="black"/>
<path d="M78.4114 155.002C78.99 155.581 79.928 155.581 80.5065 155.002C81.0851 154.424 81.0851 153.486 80.5065 152.907C79.928 152.328 78.99 152.328 78.4114 152.907C77.8328 153.486 77.8328 154.424 78.4114 155.002Z" fill="black" fill-opacity="0.2"/>
<path d="M98.7337 246.14C99.3119 246.718 100.251 246.718 100.829 246.14C101.408 245.561 101.407 244.623 100.829 244.045C100.25 243.466 99.3125 243.466 98.7337 244.045C98.1554 244.623 98.1549 245.561 98.7337 246.14Z" fill="black"/>
<path d="M98.7337 246.14C99.3119 246.718 100.251 246.718 100.829 246.14C101.408 245.561 101.407 244.623 100.829 244.045C100.25 243.466 99.3125 243.466 98.7337 244.045C98.1554 244.623 98.1549 245.561 98.7337 246.14Z" fill="black" fill-opacity="0.2"/>
<path d="M98.7337 223.303C99.3125 223.882 100.25 223.882 100.829 223.303C101.408 222.724 101.408 221.787 100.829 221.208C100.25 220.629 99.3125 220.629 98.7337 221.208C98.1549 221.787 98.1549 222.724 98.7337 223.303Z" fill="black"/>
<path d="M98.7337 223.303C99.3125 223.882 100.25 223.882 100.829 223.303C101.408 222.724 101.408 221.787 100.829 221.208C100.25 220.629 99.3125 220.629 98.7337 221.208C98.1549 221.787 98.1549 222.724 98.7337 223.303Z" fill="black" fill-opacity="0.2"/>
<path d="M99.7812 198.057C100.619 198.057 101.248 198.686 101.248 199.524C101.248 200.362 100.619 200.99 99.7812 200.99C98.9432 200.99 98.3147 200.362 98.3147 199.524C98.3147 198.686 98.9432 198.057 99.7812 198.057Z" fill="black"/>
<path d="M99.7812 198.057C100.619 198.057 101.248 198.686 101.248 199.524C101.248 200.362 100.619 200.99 99.7812 200.99C98.9432 200.99 98.3147 200.362 98.3147 199.524C98.3147 198.686 98.9432 198.057 99.7812 198.057Z" fill="black" fill-opacity="0.2"/>
<path d="M99.7812 175.325C100.619 175.325 101.248 175.953 101.248 176.791C101.248 177.629 100.619 178.258 99.7812 178.258C98.9432 178.258 98.3147 177.629 98.3147 176.791C98.3147 175.953 98.9956 175.272 99.7812 175.325Z" fill="black"/>
<path d="M99.7812 175.325C100.619 175.325 101.248 175.953 101.248 176.791C101.248 177.629 100.619 178.258 99.7812 178.258C98.9432 178.258 98.3147 177.629 98.3147 176.791C98.3147 175.953 98.9956 175.272 99.7812 175.325Z" fill="black" fill-opacity="0.2"/>
<path d="M99.781 152.488C100.619 152.488 101.248 153.116 101.248 153.954C101.248 154.792 100.619 155.421 99.781 155.421C98.943 155.421 98.3144 154.792 98.3144 153.954C98.3668 153.169 98.9954 152.54 99.781 152.488Z" fill="black"/>
<path d="M99.781 152.488C100.619 152.488 101.248 153.116 101.248 153.954C101.248 154.792 100.619 155.421 99.781 155.421C98.943 155.421 98.3144 154.792 98.3144 153.954C98.3668 153.169 98.9954 152.54 99.781 152.488Z" fill="black" fill-opacity="0.2"/>
<path d="M120.103 243.625C120.941 243.625 121.57 244.254 121.57 245.092C121.57 245.93 120.941 246.559 120.103 246.559C119.265 246.559 118.637 245.93 118.637 245.092C118.689 244.306 119.37 243.625 120.103 243.625Z" fill="black"/>
<path d="M120.103 243.625C120.941 243.625 121.57 244.254 121.57 245.092C121.57 245.93 120.941 246.559 120.103 246.559C119.265 246.559 118.637 245.93 118.637 245.092C118.689 244.306 119.37 243.625 120.103 243.625Z" fill="black" fill-opacity="0.2"/>
<path d="M120.156 220.841C120.994 220.841 121.623 221.47 121.623 222.308C121.623 223.146 120.994 223.775 120.156 223.775C119.318 223.775 118.69 223.146 118.69 222.308C118.69 221.47 119.318 220.841 120.156 220.841Z" fill="black"/>
<path d="M120.156 220.841C120.994 220.841 121.623 221.47 121.623 222.308C121.623 223.146 120.994 223.775 120.156 223.775C119.318 223.775 118.69 223.146 118.69 222.308C118.69 221.47 119.318 220.841 120.156 220.841Z" fill="black" fill-opacity="0.2"/>
<path d="M120.103 198.056C120.941 198.056 121.57 198.685 121.57 199.523C121.57 200.361 120.941 200.989 120.103 200.989C119.265 200.989 118.637 200.361 118.637 199.523C118.689 198.737 119.37 198.056 120.103 198.056Z" fill="black"/>
<path d="M120.103 198.056C120.941 198.056 121.57 198.685 121.57 199.523C121.57 200.361 120.941 200.989 120.103 200.989C119.265 200.989 118.637 200.361 118.637 199.523C118.689 198.737 119.37 198.056 120.103 198.056Z" fill="black" fill-opacity="0.2"/>
<path d="M119.109 177.786C119.687 178.365 120.625 178.365 121.204 177.786C121.782 177.208 121.782 176.27 121.204 175.691C120.625 175.113 119.687 175.113 119.109 175.691C118.53 176.27 118.53 177.208 119.109 177.786Z" fill="black"/>
<path d="M119.109 177.786C119.687 178.365 120.625 178.365 121.204 177.786C121.782 177.208 121.782 176.27 121.204 175.691C120.625 175.113 119.687 175.113 119.109 175.691C118.53 176.27 118.53 177.208 119.109 177.786Z" fill="black" fill-opacity="0.2"/>
<path d="M120.156 152.54C120.994 152.54 121.623 153.168 121.623 154.006C121.623 154.844 120.994 155.473 120.156 155.473C119.318 155.473 118.69 154.844 118.69 154.006C118.69 153.168 119.318 152.54 120.156 152.54Z" fill="black"/>
<path d="M120.156 152.54C120.994 152.54 121.623 153.168 121.623 154.006C121.623 154.844 120.994 155.473 120.156 155.473C119.318 155.473 118.69 154.844 118.69 154.006C118.69 153.168 119.318 152.54 120.156 152.54Z" fill="black" fill-opacity="0.2"/>
<path d="M140.479 243.574C141.317 243.574 141.946 244.202 141.946 245.04C141.946 245.878 141.317 246.507 140.479 246.507C139.641 246.507 139.013 245.878 139.013 245.04C139.065 244.255 139.694 243.626 140.479 243.574Z" fill="black"/>
<path d="M140.479 243.574C141.317 243.574 141.946 244.202 141.946 245.04C141.946 245.878 141.317 246.507 140.479 246.507C139.641 246.507 139.013 245.878 139.013 245.04C139.065 244.255 139.694 243.626 140.479 243.574Z" fill="black" fill-opacity="0.2"/>
<path d="M140.479 220.841C141.318 220.841 141.946 221.47 141.946 222.308C141.946 223.146 141.318 223.775 140.479 223.775C139.641 223.775 139.013 223.146 139.013 222.308C139.013 221.47 139.641 220.841 140.479 220.841Z" fill="black"/>
<path d="M140.479 220.841C141.318 220.841 141.946 221.47 141.946 222.308C141.946 223.146 141.318 223.775 140.479 223.775C139.641 223.775 139.013 223.146 139.013 222.308C139.013 221.47 139.641 220.841 140.479 220.841Z" fill="black" fill-opacity="0.2"/>
<path d="M140.479 198.109C141.318 198.109 141.946 198.738 141.946 199.576C141.946 200.414 141.318 201.042 140.479 201.042C139.641 201.042 139.013 200.414 139.013 199.576C139.013 198.738 139.694 198.057 140.479 198.109Z" fill="black"/>
<path d="M140.479 198.109C141.318 198.109 141.946 198.738 141.946 199.576C141.946 200.414 141.318 201.042 140.479 201.042C139.641 201.042 139.013 200.414 139.013 199.576C139.013 198.738 139.694 198.057 140.479 198.109Z" fill="black" fill-opacity="0.2"/>
<path d="M139.432 177.787C140.01 178.366 140.948 178.366 141.527 177.787C142.105 177.208 142.106 176.271 141.527 175.692C140.949 175.114 140.01 175.114 139.432 175.692C138.853 176.271 138.853 177.209 139.432 177.787Z" fill="black"/>
<path d="M139.432 177.787C140.01 178.366 140.948 178.366 141.527 177.787C142.105 177.208 142.106 176.271 141.527 175.692C140.949 175.114 140.01 175.114 139.432 175.692C138.853 176.271 138.853 177.209 139.432 177.787Z" fill="black" fill-opacity="0.2"/>
<path d="M139.432 155.055C140.01 155.633 140.948 155.633 141.527 155.055C142.106 154.476 142.106 153.538 141.527 152.96C140.948 152.381 140.01 152.381 139.432 152.96C138.853 153.538 138.853 154.476 139.432 155.055Z" fill="black"/>
<path d="M139.432 155.055C140.01 155.633 140.948 155.633 141.527 155.055C142.106 154.476 142.106 153.538 141.527 152.96C140.948 152.381 140.01 152.381 139.432 152.96C138.853 153.538 138.853 154.476 139.432 155.055Z" fill="black" fill-opacity="0.2"/>
<path d="M159.807 246.14C160.385 246.718 161.323 246.718 161.902 246.14C162.481 245.561 162.48 244.623 161.902 244.045C161.323 243.466 160.385 243.466 159.807 244.045C159.228 244.623 159.228 245.561 159.807 246.14Z" fill="black"/>
<path d="M159.807 246.14C160.385 246.718 161.323 246.718 161.902 246.14C162.481 245.561 162.48 244.623 161.902 244.045C161.323 243.466 160.385 243.466 159.807 244.045C159.228 244.623 159.228 245.561 159.807 246.14Z" fill="black" fill-opacity="0.2"/>
<path d="M159.754 223.356C160.332 223.934 161.271 223.934 161.849 223.356C162.428 222.777 162.428 221.839 161.849 221.26C161.271 220.682 160.333 220.682 159.754 221.26C159.176 221.839 159.175 222.777 159.754 223.356Z" fill="black"/>
<path d="M159.754 223.356C160.332 223.934 161.271 223.934 161.849 223.356C162.428 222.777 162.428 221.839 161.849 221.26C161.271 220.682 160.333 220.682 159.754 221.26C159.176 221.839 159.175 222.777 159.754 223.356Z" fill="black" fill-opacity="0.2"/>
<path d="M160.854 198.057C161.693 198.057 162.321 198.686 162.321 199.524C162.321 200.362 161.693 200.99 160.854 200.99C160.016 200.99 159.388 200.362 159.388 199.524C159.388 198.686 160.016 198.057 160.854 198.057Z" fill="black"/>
<path d="M160.854 198.057C161.693 198.057 162.321 198.686 162.321 199.524C162.321 200.362 161.693 200.99 160.854 200.99C160.016 200.99 159.388 200.362 159.388 199.524C159.388 198.686 160.016 198.057 160.854 198.057Z" fill="black" fill-opacity="0.2"/>
<path d="M160.854 175.324C161.693 175.324 162.321 175.952 162.321 176.79C162.321 177.628 161.693 178.257 160.854 178.257C160.016 178.257 159.388 177.628 159.388 176.79C159.388 175.952 160.069 175.271 160.854 175.324Z" fill="black"/>
<path d="M160.854 175.324C161.693 175.324 162.321 175.952 162.321 176.79C162.321 177.628 161.693 178.257 160.854 178.257C160.016 178.257 159.388 177.628 159.388 176.79C159.388 175.952 160.069 175.271 160.854 175.324Z" fill="black" fill-opacity="0.2"/>
<path d="M160.854 152.488C161.693 152.488 162.321 153.116 162.321 153.955C162.321 154.793 161.693 155.421 160.855 155.421C160.016 155.421 159.388 154.793 159.388 153.955C159.336 153.169 160.016 152.488 160.854 152.488Z" fill="black"/>
<path d="M160.854 152.488C161.693 152.488 162.321 153.116 162.321 153.955C162.321 154.793 161.693 155.421 160.855 155.421C160.016 155.421 159.388 154.793 159.388 153.955C159.336 153.169 160.016 152.488 160.854 152.488Z" fill="black" fill-opacity="0.2"/>
</g>
<path d="M230 354.75H110V197.25H192.5L230 234.75V354.75Z" fill="#1976D2"/>
<path d="M224.375 238.5H188.75V202.875L224.375 238.5Z" fill="#E3F2FD"/>
<path d="M180.11 299.355L185.615 269.265H197.086L186.901 317.25H174.905L168.478 289.894L162.181 317.25H150.219L140 269.262H151.501L157.006 299.352L163.599 269.262H173.42L180.11 299.355Z" fill="#FAFAFA"/>
<g clip-path="url(#clip2_765_16922)">
<path d="M93.728 342.541L93.9811 351.601C94.1968 359.325 100.48 365.536 108.292 365.749L117.456 365.999L108.292 366.25C100.48 366.463 94.1968 372.674 93.9811 380.398L93.728 389.458L93.475 380.398C93.2593 372.674 86.9766 366.463 79.1638 366.25L70 365.999L79.1638 365.749C86.9766 365.536 93.2593 359.325 93.475 351.601L93.728 342.541Z" fill="#272343"/>
<path d="M93.728 342.541L93.9811 351.601C94.1968 359.325 100.48 365.536 108.292 365.749L117.456 365.999L108.292 366.25C100.48 366.463 94.1968 372.674 93.9811 380.398L93.728 389.458L93.475 380.398C93.2593 372.674 86.9766 366.463 79.1638 366.25L70 365.999L79.1638 365.749C86.9766 365.536 93.2593 359.325 93.475 351.601L93.728 342.541Z" fill="#272343"/>
</g>
<g clip-path="url(#clip3_765_16922)">
<path d="M109.819 378.361L109.987 384.401C110.131 389.55 114.32 393.691 119.528 393.833L125.637 394L119.528 394.167C114.32 394.309 110.131 398.45 109.987 403.599L109.819 409.639L109.65 403.599C109.506 398.45 105.318 394.309 100.109 394.167L94 394L100.109 393.833C105.318 393.691 109.506 389.55 109.65 384.401L109.819 378.361Z" fill="#272343"/>
<path d="M109.819 378.361L109.987 384.401C110.131 389.55 114.32 393.691 119.528 393.833L125.637 394L119.528 394.167C114.32 394.309 110.131 398.45 109.987 403.599L109.819 409.639L109.65 403.599C109.506 398.45 105.318 394.309 100.109 394.167L94 394L100.109 393.833C105.318 393.691 109.506 389.55 109.65 384.401L109.819 378.361Z" fill="#272343"/>
</g>
<path d="M500 354.75H380V197.25H462.5L500 234.75V354.75Z" fill="#FF5722"/>
<path d="M494.375 238.5H458.75V202.875L494.375 238.5Z" fill="#FBE9E7"/>
<path d="M409.288 296.625V309.75H401.75V272.426H414.466C418.156 272.426 421.104 273.573 423.297 275.861C425.491 278.148 426.59 281.122 426.59 284.782C426.59 288.442 425.502 291.326 423.335 293.448C421.167 295.571 418.156 296.625 414.309 296.625H409.288ZM409.288 290.343H414.466C415.902 290.343 417.012 289.875 417.8 288.933C418.587 287.992 418.977 286.627 418.977 284.831C418.977 282.967 418.576 281.486 417.774 280.38C416.971 279.281 415.895 278.722 414.545 278.703H409.288V290.343ZM431.615 309.75V272.426H441.485C445.842 272.426 449.319 273.81 451.902 276.577C454.494 279.345 455.814 283.14 455.866 287.958V294.007C455.866 298.912 454.569 302.763 451.985 305.553C449.39 308.355 445.824 309.75 441.279 309.75H431.615ZM439.149 278.707V303.495H441.406C443.919 303.495 445.689 302.831 446.712 301.507C447.736 300.183 448.276 297.9 448.329 294.652V288.168C448.329 284.681 447.841 282.251 446.866 280.878C445.891 279.502 444.234 278.778 441.894 278.711L439.149 278.707ZM480.526 294.521H468.811V309.75H461.274V272.426H481.936V278.707H468.811V288.27H480.526V294.521Z" fill="#FFEBEE"/>
<g clip-path="url(#clip4_765_16922)">
<path d="M526.272 264.459L526.019 255.399C525.803 247.675 519.52 241.464 511.708 241.251L502.544 241.001L511.708 240.75C519.52 240.537 525.803 234.326 526.019 226.602L526.272 217.542L526.525 226.602C526.741 234.326 533.023 240.537 540.836 240.75L550 241.001L540.836 241.251C533.023 241.464 526.741 247.675 526.525 255.399L526.272 264.459Z" fill="#272343"/>
<path d="M526.272 264.459L526.019 255.399C525.803 247.675 519.52 241.464 511.708 241.251L502.544 241.001L511.708 240.75C519.52 240.537 525.803 234.326 526.019 226.602L526.272 217.542L526.525 226.602C526.741 234.326 533.023 240.537 540.836 240.75L550 241.001L540.836 241.251C533.023 241.464 526.741 247.675 526.525 255.399L526.272 264.459Z" fill="#272343"/>
</g>
<g clip-path="url(#clip5_765_16922)">
<path d="M510.181 228.639L510.013 222.599C509.869 217.45 505.68 213.309 500.472 213.167L494.363 213L500.472 212.833C505.68 212.691 509.869 208.55 510.013 203.401L510.181 197.361L510.35 203.401C510.494 208.55 514.682 212.691 519.891 212.833L526 213L519.891 213.167C514.682 213.309 510.494 217.45 510.35 222.599L510.181 228.639Z" fill="#272343"/>
<path d="M510.181 228.639L510.013 222.599C509.869 217.45 505.68 213.309 500.472 213.167L494.363 213L500.472 212.833C505.68 212.691 509.869 208.55 510.013 203.401L510.181 197.361L510.35 203.401C510.494 208.55 514.682 212.691 519.891 212.833L526 213L519.891 213.167C514.682 213.309 510.494 217.45 510.35 222.599L510.181 228.639Z" fill="#272343"/>
</g>
<g clip-path="url(#clip6_765_16922)">
<path d="M266.338 318.397C265.298 296.712 267.935 273.818 284.419 257.873C293.221 249.36 307.494 246.572 312.628 260.236C316.125 269.542 316.542 285.994 306.061 291.086C294.486 296.709 305.295 269.222 306.994 266.495C314.95 253.731 324.777 245.612 337.27 237.783C341.95 234.85 338.711 234.477 335.095 235.135C331.957 235.705 328.404 236.437 325.529 237.82C324.652 238.241 330.735 236.732 331.683 236.448C335.747 235.227 340.487 233.978 340.953 239.608C341.027 240.513 340.996 248.984 339.748 249.296C339.099 249.458 336.044 244.27 335.464 243.653C331.7 239.645 328.584 238.424 323.273 239.118" stroke="black" stroke-width="2" stroke-linecap="round"/>
</g>
<defs>
<clipPath id="clip0_765_16922">
<rect width="140" height="140" fill="white" transform="translate(494 248.005) rotate(45)"/>
</clipPath>
<clipPath id="clip1_765_16922">
<rect width="140" height="140" fill="white" transform="translate(109.995 101) rotate(45)"/>
</clipPath>
<clipPath id="clip2_765_16922">
<rect width="48" height="48" fill="white" transform="translate(70 342)"/>
</clipPath>
<clipPath id="clip3_765_16922">
<rect width="32" height="32" fill="white" transform="translate(94 378)"/>
</clipPath>
<clipPath id="clip4_765_16922">
<rect width="48" height="48" fill="white" transform="translate(550 265) rotate(180)"/>
</clipPath>
<clipPath id="clip5_765_16922">
<rect width="32" height="32" fill="white" transform="translate(526 229) rotate(180)"/>
</clipPath>
<clipPath id="clip6_765_16922">
<rect width="77" height="85" fill="white" transform="translate(265 234)"/>
</clipPath>
</defs>
</svg>
